<svg width="250" height="160" viewBox="0 0 250 160" fill="none" xmlns="http://www.w3.org/2000/svg">
<rect width="250" height="160" rx="10" fill="#C74FFF"/>
<circle cx="194.5" cy="38.5" r="17.5" fill="#D53C3C"/>
<circle cx="212.5" cy="38.5" r="17.5" fill="#9F1D1D"/>
<path fill-rule="evenodd" clip-rule="evenodd" d="M203.5 53.5114C208.593 50.4516 212 44.8737 212 38.5C212 32.1263 208.593 26.5484 203.5 23.4886C198.407 26.5484 195 32.1263 195 38.5C195 44.8737 198.407 50.4516 203.5 53.5114Z" fill="#EE5959"/>
<rect x="21" y="56" width="44" height="33" rx="4" fill="#C4C4C4"/>
<path fill-rule="evenodd" clip-rule="evenodd" d="M61.8305 56.0863C61.5626 56.0298 61.2848 56 61 56H42.84L21 67.617V76.8868L61.8305 56.0863Z" fill="#D7D7D7"/>
<rect x="172" y="89" width="58" height="18" rx="5" fill="white"/>
<rect x="21" y="122" width="209" height="18" rx="5" fill="white"/>
</svg>
