<svg width="261" height="165" viewBox="0 0 261 165" fill="none" xmlns="http://www.w3.org/2000/svg">
<rect width="261" height="165" rx="10" fill="#C74FFF"/>
<circle cx="197.5" cy="38.5" r="17.5" fill="#D53C3C"/>
<circle cx="215.5" cy="38.5" r="17.5" fill="#9F1D1D"/>
<path fill-rule="evenodd" clip-rule="evenodd" d="M206.5 53.5114C211.593 50.4516 215 44.8737 215 38.5C215 32.1263 211.593 26.5484 206.5 23.4886C201.407 26.5484 198 32.1263 198 38.5C198 44.8737 201.407 50.4516 206.5 53.5114Z" fill="#EE5959"/>
<rect x="24" y="56" width="44" height="33" rx="4" fill="#C4C4C4"/>
<path fill-rule="evenodd" clip-rule="evenodd" d="M64.8305 56.0863C64.5626 56.0298 64.2848 56 64 56H45.84L24 67.617V76.8868L64.8305 56.0863Z" fill="#D7D7D7"/>
<rect x="175" y="89" width="58" height="18" rx="5" fill="white"/>
<rect x="24" y="121" width="209" height="18" rx="5" fill="white"/>
</svg>
